<?xml version="1.0" encoding="UTF-8"?>
<svg width="1015px" height="750px" viewBox="0 0 1015 750" version="1.1" xmlns="http://www.w3.org/2000/svg" xmlns:xlink="http://www.w3.org/1999/xlink">
    <!-- Generator: Sketch 54.1 (76490) - https://sketchapp.com -->
    <title>book_lover</title>
    <desc>Created with Sketch.</desc>
    <defs>
        <linearGradient x1="50.2208782%" y1="62.0643573%" x2="50.6248474%" y2="51.3035179%" id="linearGradient-1">
            <stop stop-color="#FFFFFF" stop-opacity="0" offset="0%"></stop>
            <stop stop-color="#FFFFFF" offset="99%"></stop>
        </linearGradient>
        <linearGradient x1="67%" y1="48.9599831%" x2="48.0818182%" y2="50.1173043%" id="linearGradient-2">
            <stop stop-color="#00272E" offset="17%"></stop>
            <stop stop-color="#69B9EB" stop-opacity="0" offset="100%"></stop>
        </linearGradient>
        <linearGradient x1="49.7002486%" y1="49.3860007%" x2="50.6857728%" y2="51.4002405%" id="linearGradient-3">
            <stop stop-color="#000000" stop-opacity="0" offset="0%"></stop>
            <stop stop-color="#000000" stop-opacity="0.8" offset="91%"></stop>
            <stop stop-color="#000000" offset="100%"></stop>
        </linearGradient>
        <linearGradient x1="50.9163112%" y1="52.1105515%" x2="49.3543168%" y2="53.0522617%" id="linearGradient-4">
            <stop stop-color="#FFFFFF" stop-opacity="0" offset="0%"></stop>
            <stop stop-color="#FFFFFF" offset="99%"></stop>
        </linearGradient>
        <linearGradient x1="28.9343162%" y1="-80.6272276%" x2="-81.3698384%" y2="-77.6716844%" id="linearGradient-5">
            <stop stop-color="#000000" stop-opacity="0" offset="0%"></stop>
            <stop stop-color="#000000" stop-opacity="0.8" offset="91%"></stop>
            <stop stop-color="#000000" offset="100%"></stop>
        </linearGradient>
        <linearGradient x1="43.5862517%" y1="101.82817%" x2="64.9199122%" y2="-77.0789427%" id="linearGradient-6">
            <stop stop-color="#FFFFFF" stop-opacity="0" offset="0%"></stop>
            <stop stop-color="#FFFFFF" offset="99%"></stop>
        </linearGradient>
        <linearGradient x1="101.309966%" y1="52.931198%" x2="-1.64351304%" y2="46.8191216%" id="linearGradient-7">
            <stop stop-color="#68E1FD" offset="0%"></stop>
            <stop stop-color="#FFFFFF" offset="100%"></stop>
        </linearGradient>
        <linearGradient x1="97.7211933%" y1="223.187878%" x2="-19.4574475%" y2="223.187878%" id="linearGradient-8">
            <stop stop-color="#FFFFFF" stop-opacity="0" offset="0%"></stop>
            <stop stop-color="#FFFFFF" offset="99%"></stop>
        </linearGradient>
        <linearGradient x1="0%" y1="50%" x2="100%" y2="50%" id="linearGradient-9">
            <stop stop-color="#68E1FD" offset="0%"></stop>
            <stop stop-color="#69B9EB" offset="100%"></stop>
        </linearGradient>
        <linearGradient x1="101.428571%" y1="8638.38384%" x2="201.428571%" y2="8638.38384%" id="linearGradient-10">
            <stop stop-color="#68E1FD" offset="0%"></stop>
            <stop stop-color="#69B9EB" offset="100%"></stop>
        </linearGradient>
        <linearGradient x1="169%" y1="12283.4532%" x2="215%" y2="12283.4532%" id="linearGradient-11">
            <stop stop-color="#68E1FD" offset="0%"></stop>
            <stop stop-color="#69B9EB" offset="100%"></stop>
        </linearGradient>
        <linearGradient x1="44.9132456%" y1="243.412807%" x2="58.5359091%" y2="92.3503566%" id="linearGradient-12">
            <stop stop-color="#FFFFFF" stop-opacity="0" offset="0%"></stop>
            <stop stop-color="#FFFFFF" offset="99%"></stop>
        </linearGradient>
        <linearGradient x1="49.7066902%" y1="163.898293%" x2="51.0422013%" y2="-285.932435%" id="linearGradient-13">
            <stop stop-color="#FFFFFF" stop-opacity="0" offset="0%"></stop>
            <stop stop-color="#FFFFFF" offset="99%"></stop>
        </linearGradient>
        <linearGradient x1="-0.0297290147%" y1="49.9846776%" x2="100%" y2="49.9846776%" id="linearGradient-14">
            <stop stop-color="#183866" offset="0%"></stop>
            <stop stop-color="#1A7FC1" offset="100%"></stop>
        </linearGradient>
        <linearGradient x1="40.1294196%" y1="24.857513%" x2="79.0947878%" y2="175.958549%" id="linearGradient-15">
            <stop stop-color="#FFFFFF" stop-opacity="0" offset="0%"></stop>
            <stop stop-color="#FFFFFF" offset="99%"></stop>
        </linearGradient>
    </defs>
    <g id="Illustrations-(manypixels.co)" stroke="none" stroke-width="1" fill="none" fill-rule="evenodd">
        <g id="book_lover">
            <path d="M367.587793,54.6822742 C340.936455,79.3770903 321.18311,111.120401 292.863712,133.833612 C244.979097,172.311873 179.987458,179.962375 123.674749,204.456522 C86.4255853,220.660535 51.1078595,246.333612 34.6279264,283.4699 C21.3210702,313.570234 23.0016722,349.051003 36.8352843,378.787625 C50.264835,407.755185 48.1025208,441.554327 31.0911371,468.574415 C10.5852843,501.057692 -1.78093645,538.168896 0.213210702,576.283445 C3.29849498,634.903846 47.8093645,692.734114 106.266722,698.12709 C126.333612,699.983278 146.500836,695.907191 166.367057,692.270067 C286.354515,670.321906 413.352843,664.678094 527.483278,707.658863 C558.762542,719.448161 588.875418,734.811873 621.396321,742.562709 C659.385452,751.617893 698.992475,749.899666 738.035117,748.131271 C798.963211,745.372074 870.050167,736.843645 901.166388,684.368729 C944.297659,611.626254 875.593645,520.811037 885.363712,436.831104 C890.769231,390.426421 920.029264,349.615385 926.199833,303.348662 C932.897157,253.05602 909.055184,199.891304 867.040134,171.446488 C808.695652,131.952341 728.014214,141.534281 667.77592,104.974916 C620.117057,76.0409699 587.35786,19.5025084 531.170569,4.11371237 C476.061873,-10.9615385 407.696488,17.5585284 367.587793,54.6822742 Z" id="Path" fill="#E6B000" fill-rule="nonzero" opacity="0.18"></path>
            <path d="M114.0301,559.878763 C108.135452,519.406355 94.076087,480.438963 88.382107,439.92893 C82.6881271,399.418896 86.6513378,354.870401 112.600334,323.290134 C129.531773,302.683946 153.862876,289.828595 177.654682,277.77592 C198.812709,267.052676 220.597826,256.367057 244.126254,253.457358 C264.870401,250.948997 285.802676,254.523411 306.546823,257.006689 C345.576923,261.672241 385.321906,262.286789 424.063545,255.639632 C474.644649,246.860368 522.466555,226.793478 571.906355,213.210702 C620.330268,199.841137 668.26505,193.030936 722.408027,218.227425 C759.832776,235.660535 787.449833,272.056856 796.404682,312.29097 C810.877926,377.295151 778.19398,449.335284 805.673077,509.987458 C813.423913,527.069398 825.464047,541.793478 835.296823,557.771739 C847.382966,577.47147 856.105839,599.045533 861.10786,621.609532 C862.826087,629.37291 864.092809,637.562709 861.897993,645.200669 C856.254181,664.765886 832.073579,671.275084 811.730769,672.880435 C744.092809,678.223244 676.517559,665.606187 609.055184,658.269231 C499.540134,646.379599 389.034281,648.47408 279.331104,656.66388 C252.483278,658.670569 225.652174,661.011706 198.837793,663.687291 C177.203177,665.806856 136.128763,678.737458 115.735786,672.579431 C92.9974916,665.69398 107.922241,650.781773 112.738294,629.37291 C117.892977,606.647157 117.366221,582.755017 114.0301,559.878763 Z" id="Path" fill="#E6B000" fill-rule="nonzero" opacity="0.11"></path>
            <path d="M481.605351,172.048495 C481.605351,172.048495 471.233278,214.214047 455.731605,225.978261 C439.728261,238.118729 423.12291,214.79097 423.12291,214.79097 L413.879599,231.496656 C413.879599,231.496656 430.97408,259.088629 448.206522,259.728261 C465.438963,260.367893 480.564381,244.941472 480.564381,244.941472 L481.605351,172.048495 Z" id="Path" fill="#E6B000" fill-rule="nonzero"></path>
            <polygon id="Path" fill="#3F3D56" fill-rule="nonzero" points="393.022575 143.089465 395.367893 142.048495 443.177258 154.201505 457.537625 251.024247 455.744147 251.024247"></polygon>
            <path d="M166.868729,665.530936 C166.868729,665.530936 62.583612,672.516722 47.583612,682.512542 C32.583612,692.508361 150.050167,694.703177 337.487458,689.071906 C524.924749,683.440635 669.243311,689.071906 771.433946,699.381271 C873.624582,709.690635 1012.23662,707.696488 1014.15552,682.449833 C1016.07441,657.203177 761.124582,656.902174 761.124582,656.902174 L166.868729,665.530936 Z" id="Path" fill="#000405" fill-rule="nonzero" opacity="0.05"></path>
            <path d="M815.217391,464.561037 C815.217391,464.561037 811.718227,493.68311 789.218227,496.542642 L690.388796,496.542642 L676.329431,334.866221 L780.426421,334.866221 C788.829431,334.866221 806.049331,343.921405 809.485786,356.73913 C809.947268,359.112101 810.253104,361.512707 810.401338,363.925585 L810.401338,363.925585 C812.70903,388.795987 815.217391,464.561037 815.217391,464.561037 Z" id="Path" fill="#E6B000" fill-rule="nonzero"></path>
            <path d="M179.623746,349.916388 L170.317726,345.865385 C167.821313,344.779696 166.429822,342.090776 166.985284,339.42577 C167.540747,336.760763 169.890599,334.851645 172.612876,334.853679 L676.329431,334.853679 C688.934187,334.735533 700.905723,340.368111 708.850334,350.154682 C712.120462,354.120004 714.283888,358.879539 715.121237,363.950669 C717.391304,379.088629 715.999164,445.020903 715.372074,469.778428 C715.033445,483.223244 705.125418,494.86204 691.780936,496.467391 L690.351171,496.605351 L202.474916,496.605351 L179.623746,349.916388 Z" id="Path" fill="#E6B000" fill-rule="nonzero"></path>
            <path d="M179.623746,349.916388 L170.317726,345.865385 C167.821313,344.779696 166.429822,342.090776 166.985284,339.42577 C167.540747,336.760763 169.890599,334.851645 172.612876,334.853679 L676.329431,334.853679 C688.934187,334.735533 700.905723,340.368111 708.850334,350.154682 C712.120462,354.120004 714.283888,358.879539 715.121237,363.950669 C717.391304,379.088629 715.999164,445.020903 715.372074,469.778428 C715.033445,483.223244 705.125418,494.86204 691.780936,496.467391 L690.351171,496.605351 L202.474916,496.605351 L179.623746,349.916388 Z" id="Path" fill="#E6B000" fill-rule="nonzero"></path>
            <path d="M715.409699,469.715719 C715.07107,483.160535 705.163043,494.799331 691.818562,496.404682 L690.388796,496.542642 L202.512542,496.542642 L179.623746,349.916388 L170.317726,345.865385 C167.821313,344.779696 166.429822,342.090776 166.985284,339.42577 C167.540747,336.760763 169.890599,334.851645 172.612876,334.853679 L676.329431,334.853679 C688.934187,334.735533 700.905723,340.368111 708.850334,350.154682 C712.120462,354.120004 714.283888,358.879539 715.121237,363.950669 C717.391304,379.02592 716.036789,444.958194 715.409699,469.715719 Z" id="Path" fill="url(#linearGradient-1)" fill-rule="nonzero"></path>
            <path d="M154.364548,496.655518 L692.157191,496.655518 C696.031221,496.655525 699.173684,493.518673 699.180602,489.644649 L699.180602,489.644649 C699.180602,485.765726 696.036114,482.621237 692.157191,482.621237 L154.364548,482.621237 C150.485626,482.621237 147.341137,485.765726 147.341137,489.644649 L147.341137,489.644649 C147.348055,493.518673 150.490518,496.655525 154.364548,496.655518 Z" id="Path" fill="url(#linearGradient-2)" fill-rule="nonzero" opacity="0.61"></path>
            <path d="M154.364548,496.655518 L692.157191,496.655518 C696.031221,496.655525 699.173684,493.518673 699.180602,489.644649 L699.180602,489.644649 C699.180602,485.765726 696.036114,482.621237 692.157191,482.621237 L154.364548,482.621237 C150.485626,482.621237 147.341137,485.765726 147.341137,489.644649 L147.341137,489.644649 C147.348055,493.518673 150.490518,496.655525 154.364548,496.655518 Z" id="Path" fill="#E6B000" fill-rule="nonzero"></path>
            <path d="M802.512542,542.671405 L802.512542,630.401338 C802.512546,654.233069 783.200456,673.556387 759.368729,673.570234 L191.964883,673.570234 C180.535734,673.586878 169.568083,669.062622 161.474694,660.992753 C153.381305,652.922884 148.825148,641.968447 148.808528,630.539298 L148.808528,630.539298 L148.808528,542.671405 C148.798295,534.697716 151.013487,526.87939 155.204849,520.096154 C156.120053,518.592503 157.133984,517.151212 158.239967,515.781773 C166.417084,505.50884 178.834832,499.528556 191.964883,499.540134 L759.356187,499.540134 C783.18505,499.553972 802.498704,518.867626 802.512542,542.696488 L802.512542,542.696488 L802.512542,542.671405 Z" id="Path" fill="#E6B000" fill-rule="nonzero"></path>
            <path d="M581.563545,673.570257 L191.964883,673.570234 C175.080946,673.587404 159.73759,663.757071 152.696488,648.411371 L556.780936,648.411371 C556.780936,648.411371 562.600334,669.732441 581.563545,673.570257 Z" id="Path" fill="url(#linearGradient-3)" fill-rule="nonzero"></path>
            <path d="M581.563545,499.48995 C563.653846,502.449833 558.649666,520.045987 558.649666,520.045987 L155.204849,520.045987 L158.239967,515.731605 C166.417084,505.458673 178.834832,499.478389 191.964883,499.489967 L581.563545,499.48995 Z" id="Path" fill="url(#linearGradient-4)" fill-rule="nonzero"></path>
            <path d="M802.512542,542.671405 L802.512542,630.401338 C802.525167,646.127666 793.974888,660.613636 780.200669,668.202341 L602.006689,668.202341 C594.821894,668.205668 587.930048,665.35471 582.847279,660.276645 C577.76451,655.19858 574.907172,648.309377 574.903846,641.124582 L574.903846,641.124582 L574.903846,534.669732 C574.900517,527.480592 577.754918,520.584943 582.838409,515.501452 C587.9219,510.417961 594.817548,507.563561 602.006689,507.56689 L784.489967,507.56689 C795.813559,515.671701 802.525973,528.746193 802.512542,542.671405 Z" id="Path" fill="url(#linearGradient-5)" fill-rule="nonzero"></path>
            <path d="M802.512542,542.671405 L802.512542,630.401338 C802.512691,632.018635 802.424768,633.63474 802.249164,635.242475 C802.173913,635.944816 802.073579,636.634615 801.960702,637.324415 C801.494714,640.330213 800.695475,643.274778 799.577759,646.103679 C799.314381,646.818562 799.02592,647.508361 798.699833,648.198161 C797.295004,651.321373 795.526954,654.268122 793.432274,656.977425 C792.880435,657.679766 792.303512,658.382107 791.688963,659.059365 C788.415553,662.767191 784.529634,665.885259 780.200669,668.277592 L627.604515,668.277592 C619.805945,668.29143 612.382946,664.929813 607.249164,659.059365 C606.659427,658.396383 606.106746,657.701346 605.593645,656.977425 C603.677649,654.333621 602.269945,651.356603 601.442308,648.198161 C601.254181,647.520903 601.103679,646.818562 600.978261,646.103679 C600.666768,644.470802 600.511385,642.811985 600.514214,641.149666 L600.514214,534.669732 C600.513893,532.772421 600.715701,530.880475 601.116221,529.02592 C601.243162,528.321708 601.414916,527.626314 601.630435,526.94398 C602.560902,523.765792 604.074999,520.788636 606.095318,518.164716 C606.647027,517.43953 607.237345,516.744546 607.863712,516.082776 C612.970547,510.613798 620.121917,507.515174 627.604515,507.529264 L784.489967,507.529264 C787.850515,509.937271 790.845503,512.818205 793.382107,516.082776 C793.908863,516.760033 794.423077,517.449833 794.912207,518.164716 C796.803079,520.895927 798.360937,523.843227 799.552676,526.94398 C799.828595,527.633779 800.091973,528.33612 800.305184,529.02592 C801.272496,531.871683 801.920291,534.816205 802.236622,537.805184 C802.324415,538.494983 802.387124,539.197324 802.424749,539.899666 C802.462375,540.602007 802.512542,541.80602 802.512542,542.671405 Z" id="Path" fill="#E6B000" fill-rule="nonzero"></path>
            <path d="M802.512542,542.671405 L802.512542,630.401338 C802.512691,632.018635 802.424768,633.63474 802.249164,635.242475 C802.173913,635.944816 802.073579,636.634615 801.960702,637.324415 C801.494714,640.330213 800.695475,643.274778 799.577759,646.103679 C799.314381,646.818562 799.02592,647.508361 798.699833,648.198161 C797.295004,651.321373 795.526954,654.268122 793.432274,656.977425 C792.880435,657.679766 792.303512,658.382107 791.688963,659.059365 C788.415553,662.767191 784.529634,665.885259 780.200669,668.277592 L627.604515,668.277592 C619.805945,668.29143 612.382946,664.929813 607.249164,659.059365 C606.659427,658.396383 606.106746,657.701346 605.593645,656.977425 C603.677649,654.333621 602.269945,651.356603 601.442308,648.198161 C601.254181,647.520903 601.103679,646.818562 600.978261,646.103679 C600.666768,644.470802 600.511385,642.811985 600.514214,641.149666 L600.514214,534.669732 C600.513893,532.772421 600.715701,530.880475 601.116221,529.02592 C601.243162,528.321708 601.414916,527.626314 601.630435,526.94398 C602.560902,523.765792 604.074999,520.788636 606.095318,518.164716 C606.647027,517.43953 607.237345,516.744546 607.863712,516.082776 C612.970547,510.613798 620.121917,507.515174 627.604515,507.529264 L784.489967,507.529264 C787.850515,509.937271 790.845503,512.818205 793.382107,516.082776 C793.908863,516.760033 794.423077,517.449833 794.912207,518.164716 C796.803079,520.895927 798.360937,523.843227 799.552676,526.94398 C799.828595,527.633779 800.091973,528.33612 800.305184,529.02592 C801.272496,531.871683 801.920291,534.816205 802.236622,537.805184 C802.324415,538.494983 802.387124,539.197324 802.424749,539.899666 C802.462375,540.602007 802.512542,541.80602 802.512542,542.671405 Z" id="Path" fill="url(#linearGradient-6)" fill-rule="nonzero"></path>
            <path d="M794.912207,518.202341 L606.095318,518.202341 C606.647027,517.477156 607.237345,516.782172 607.863712,516.120401 L793.369565,516.120401 C793.896321,516.797659 794.423077,517.487458 794.912207,518.202341 Z" id="Path" fill="#FFFFFF" fill-rule="nonzero"></path>
            <path d="M800.305184,529.02592 L601.116221,529.02592 C601.243162,528.321708 601.414916,527.626314 601.630435,526.94398 L799.552676,526.94398 C799.828595,527.633779 800.091973,528.33612 800.305184,529.02592 Z" id="Path" fill="#FFFFFF" fill-rule="nonzero"></path>
            <path d="M802.424749,539.86204 L600.501672,539.86204 L600.501672,537.767559 L802.236622,537.767559 C802.324415,538.457358 802.387124,539.159699 802.424749,539.86204 Z" id="Path" fill="#FFFFFF" fill-rule="nonzero"></path>
            <rect id="Rectangle" fill="#FFFFFF" fill-rule="nonzero" x="600.514214" y="548.603679" width="202.01087" height="2.0819398"></rect>
            <rect id="Rectangle" fill="#FFFFFF" fill-rule="nonzero" x="600.514214" y="559.427258" width="202.01087" height="2.0819398"></rect>
            <rect id="Rectangle" fill="#FFFFFF" fill-rule="nonzero" x="600.514214" y="570.263378" width="202.01087" height="2.0819398"></rect>
            <rect id="Rectangle" fill="#FFFFFF" fill-rule="nonzero" x="600.514214" y="581.099498" width="202.01087" height="2.06939799"></rect>
            <rect id="Rectangle" fill="#FFFFFF" fill-rule="nonzero" x="600.514214" y="591.923077" width="202.01087" height="2.06939799"></rect>
            <rect id="Rectangle" fill="#FFFFFF" fill-rule="nonzero" x="600.514214" y="602.759197" width="202.01087" height="2.06939799"></rect>
            <rect id="Rectangle" fill="#FFFFFF" fill-rule="nonzero" x="600.514214" y="613.582776" width="202.01087" height="2.06939799"></rect>
            <rect id="Rectangle" fill="#FFFFFF" fill-rule="nonzero" x="600.514214" y="624.418896" width="202.01087" height="2.0819398"></rect>
            <path d="M802.249164,635.242475 C802.173913,635.944816 802.073579,636.634615 801.960702,637.324415 L600.514214,637.324415 L600.514214,635.242475 L802.249164,635.242475 Z" id="Path" fill="#FFFFFF" fill-rule="nonzero"></path>
            <path d="M799.640468,646.066054 C799.37709,646.780936 799.088629,647.470736 798.762542,648.160535 L601.479933,648.160535 C601.291806,647.483278 601.141304,646.780936 601.015886,646.066054 L799.640468,646.066054 Z" id="Path" fill="#FFFFFF" fill-rule="nonzero"></path>
            <path d="M793.432274,656.902174 C792.880435,657.604515 792.303512,658.306856 791.688963,658.984114 L607.249164,658.984114 C606.659427,658.321133 606.106746,657.626095 605.593645,656.902174 L793.432274,656.902174 Z" id="Path" fill="#FFFFFF" fill-rule="nonzero"></path>
            <path d="M552.165552,479.260033 L680.719064,479.260033 C675.266341,481.979659 669.253837,483.388302 663.160535,483.373746 L185.167224,483.373746 C177.269944,483.443839 169.543572,481.074243 163.043478,476.588629 C161.202382,475.319573 159.492418,473.870095 157.938963,472.261706 C157.437291,471.747492 156.948161,471.208194 156.484114,470.668896 C154.734201,468.623122 153.243033,466.36952 152.044314,463.95903 C151.780936,463.432274 151.5301,462.892977 151.304348,462.366221 C150.373595,460.21641 149.700032,457.964185 149.297659,455.656355 C149.209866,455.129599 149.122074,454.602843 149.059365,454.051003 C148.909207,452.802442 148.833822,451.54602 148.833612,450.288462 L148.833612,382.98913 C148.821108,382.273423 148.846226,381.557553 148.908863,380.844482 C148.984114,380.14214 148.996656,379.778428 149.059365,379.251672 C149.339595,376.960413 149.882461,374.708993 150.677258,372.541806 C150.877926,372.002508 151.091137,371.475753 151.31689,370.936455 C152.334657,368.548468 153.649367,366.298291 155.229933,364.23913 L156.484114,362.633779 C157.410342,361.552918 158.403071,360.530867 159.456522,359.573579 C166.527608,353.269213 175.694255,349.826131 185.167224,349.916388 L663.160535,349.916388 C670.672837,349.905568 678.025395,352.084749 684.318562,356.187291 L552.165552,356.187291 C550.153336,356.184887 548.148414,356.429185 546.195652,356.914716 C542.185604,357.8661 538.504168,359.875731 535.535117,362.734114 C535.005625,363.238563 534.507218,363.774664 534.042642,364.339465 C532.362545,366.304365 531.084228,368.579771 530.2801,371.036789 C530.103135,371.563052 529.956572,372.099053 529.841137,372.64214 C529.505245,374.059861 529.33687,375.512098 529.339465,376.969064 L529.339465,458.578595 C529.343342,459.842599 529.473588,461.103049 529.728261,462.341137 C529.830968,462.879423 529.964974,463.411262 530.129599,463.933946 C530.839887,466.377835 532.024649,468.657863 533.616221,470.643813 C534.053321,471.197711 534.517953,471.729316 535.008361,472.236622 C537.161088,474.467265 539.753393,476.226787 542.621237,477.403846 C545.64428,478.662091 548.891282,479.293571 552.165552,479.260033 L552.165552,479.260033 Z" id="Path" fill="#E6B000" fill-rule="nonzero"></path>
            <path d="M699.506689,383.478261 L699.506689,451.567726 C699.519562,451.953879 699.494356,452.340361 699.431438,452.721572 C699.356187,453.097826 699.431438,453.486622 699.331104,453.862876 C699.256776,454.205518 699.210635,454.553672 699.193144,454.903846 C699.193144,455.242475 699.105351,455.443144 699.055184,455.706522 C699.043393,455.842455 699.018186,455.976888 698.979933,456.10786 C698.917224,456.471572 698.841973,456.847826 698.754181,457.211538 C698.666388,457.575251 698.641304,457.688127 698.566054,457.926421 C698.490803,458.164716 698.453177,458.390468 698.377926,458.628763 C698.302676,458.867057 698.239967,459.130435 698.164716,459.381271 L697.901338,460.146321 C697.872778,460.361761 697.804752,460.570091 697.700669,460.76087 C697.625418,460.961538 697.5,461.300167 697.387124,461.563545 L697.048495,462.378763 C696.994497,462.53064 696.927352,462.677518 696.847826,462.817726 C696.768719,463.028113 696.676567,463.233361 696.571906,463.432274 C696.496656,463.60786 696.396321,463.783445 696.308528,463.95903 C696.220736,464.134615 696.045151,464.498328 695.894649,464.749164 C695.744147,465 695.468227,465.564381 695.229933,466.003344 L694.841137,466.630435 C694.489967,467.207358 694.126254,467.759197 693.737458,468.298495 C693.536789,468.586957 693.33612,468.850334 693.135452,469.113712 C692.734114,469.65301 692.307692,470.167224 691.881271,470.681438 C691.454849,471.195652 690.928094,471.760033 690.41388,472.274247 C689.386209,473.324966 688.292873,474.309387 687.140468,475.221572 C687.12138,475.256539 687.09015,475.283307 687.052676,475.296823 C686.676421,475.597826 686.300167,475.873746 685.911371,476.162207 L684.657191,477.027592 L683.40301,477.830268 C683.001672,478.081104 682.600334,478.306856 682.148829,478.545151 L680.706522,479.310201 L552.165552,479.310201 C548.88938,479.324582 545.643713,478.680566 542.621237,477.416388 C539.758835,476.240671 537.167867,474.490593 535.008361,472.274247 C534.517953,471.766941 534.053321,471.235336 533.616221,470.681438 C532.02541,468.709028 530.840462,466.44143 530.129599,464.009197 C529.963492,463.491184 529.829459,462.963428 529.728261,462.42893 C529.473588,461.190841 529.343342,459.930392 529.339465,458.666388 L529.339465,377.370401 C529.336158,375.921672 529.504556,374.477655 529.841137,373.068562 C529.956579,372.529595 530.103146,371.997767 530.2801,371.475753 C531.084505,369.03019 532.363053,366.767161 534.042642,364.816054 C534.507218,364.251253 535.005625,363.715151 535.535117,363.210702 C538.516037,360.373724 542.193684,358.374814 546.195652,357.416388 C548.150016,356.941023 550.154206,356.701025 552.165552,356.701505 L684.318562,356.701505 C684.895485,357.077759 685.472408,357.466555 686.024247,357.880435 L686.66388,358.357023 C687.536321,359.006039 688.373625,359.701001 689.172241,360.438963 L689.86204,361.091137 L690.363712,361.592809 L691.04097,362.295151 L691.718227,363.047659 L691.856187,363.210702 L691.956522,363.33612 C692.35786,363.812709 692.759197,364.314381 693.135452,364.816054 C693.33612,365.06689 693.524247,365.330268 693.712375,365.581104 C693.726094,365.621729 693.752466,365.656892 693.787625,365.681438 C694.130435,366.166388 694.456522,366.655518 694.765886,367.148829 L695.305184,368.026756 C695.631271,368.578595 695.944816,369.155518 696.233278,369.7199 C696.371237,370.020903 696.521739,370.296823 696.659699,370.585284 C696.797659,370.873746 696.935619,371.187291 697.048495,371.475753 C697.161371,371.764214 697.286789,372.002508 697.387124,372.278428 C697.487458,372.554348 697.600334,372.805184 697.688127,373.068562 L697.964047,373.858696 C698.343642,374.9447 698.649521,376.055082 698.879599,377.182274 C698.921887,377.325686 698.951268,377.472592 698.967391,377.621237 C698.993272,377.888666 699.04365,378.153154 699.117893,378.411371 C699.117893,378.674749 699.255853,379.301839 699.318562,379.740803 C699.381271,380.179766 699.44398,380.794314 699.469064,381.333612 L699.469064,382.186455 C699.469064,382.525084 699.506689,383.039298 699.506689,383.478261 Z" id="Path" fill="url(#linearGradient-7)" fill-rule="nonzero"></path>
            <path d="M542.621237,477.353679 C539.786789,478.043478 536.864548,478.670569 533.841973,479.260033 L193.043478,479.260033 C182.980562,479.343224 172.933366,478.448554 163.043478,476.588629 C161.202382,475.319573 159.492418,473.870095 157.938963,472.261706 C157.437291,471.747492 156.948161,471.208194 156.484114,470.668896 C154.734201,468.623122 153.243033,466.36952 152.044314,463.95903 C151.780936,463.432274 151.5301,462.892977 151.304348,462.366221 C150.373595,460.21641 149.700032,457.964185 149.297659,455.656355 C149.209866,455.129599 149.122074,454.602843 149.059365,454.051003 C148.909207,452.802442 148.833822,451.54602 148.833612,450.288462 L148.833612,382.98913 C148.821108,382.273423 148.846226,381.557553 148.908863,380.844482 C148.984114,380.14214 148.996656,379.778428 149.059365,379.251672 C149.339595,376.960413 149.882461,374.708993 150.677258,372.541806 C150.877926,372.002508 151.091137,371.475753 151.31689,370.936455 C152.334657,368.548468 153.649367,366.298291 155.229933,364.23913 L156.484114,362.633779 C157.410342,361.552918 158.403071,360.530867 159.456522,359.573579 C170.499736,357.19215 181.771844,356.035497 193.068562,356.124582 L543.386288,356.124582 L546.195652,356.852007 C542.185604,357.803391 538.504168,359.813022 535.535117,362.671405 C535.005625,363.175854 534.507218,363.711955 534.042642,364.276756 C532.362545,366.241656 531.084228,368.517062 530.2801,370.97408 C530.103135,371.500343 529.956572,372.036344 529.841137,372.579431 C529.505245,373.997152 529.33687,375.449389 529.339465,376.906355 L529.339465,458.515886 C529.343342,459.77989 529.473588,461.04034 529.728261,462.278428 C529.830968,462.816714 529.964974,463.348553 530.129599,463.871237 C530.839887,466.315126 532.024649,468.595153 533.616221,470.581104 C534.053321,471.135001 534.517953,471.666607 535.008361,472.173913 C537.160605,474.408236 539.752808,476.171958 542.621237,477.353679 L542.621237,477.353679 Z" id="Path" fill="#E6B000" fill-rule="nonzero"></path>
            <path d="M542.621237,477.353679 C539.786789,478.043478 536.864548,478.670569 533.841973,479.260033 L193.043478,479.260033 C182.980562,479.343224 172.933366,478.448554 163.043478,476.588629 C161.202382,475.319573 159.492418,473.870095 157.938963,472.261706 C157.437291,471.747492 156.948161,471.208194 156.484114,470.668896 C154.734201,468.623122 153.243033,466.36952 152.044314,463.95903 C151.780936,463.432274 151.5301,462.892977 151.304348,462.366221 C150.373595,460.21641 149.700032,457.964185 149.297659,455.656355 C149.209866,455.129599 149.122074,454.602843 149.059365,454.051003 C148.909207,452.802442 148.833822,451.54602 148.833612,450.288462 L148.833612,382.98913 C148.821108,382.273423 148.846226,381.557553 148.908863,380.844482 C148.984114,380.14214 148.996656,379.778428 149.059365,379.251672 C149.339595,376.960413 149.882461,374.708993 150.677258,372.541806 C150.877926,372.002508 151.091137,371.475753 151.31689,370.936455 C152.334657,368.548468 153.649367,366.298291 155.229933,364.23913 L156.484114,362.633779 C157.410342,361.552918 158.403071,360.530867 159.456522,359.573579 C170.499736,357.19215 181.771844,356.035497 193.068562,356.124582 L543.386288,356.124582 L546.195652,356.852007 C542.185604,357.803391 538.504168,359.813022 535.535117,362.671405 C535.005625,363.175854 534.507218,363.711955 534.042642,364.276756 C532.362545,366.241656 531.084228,368.517062 530.2801,370.97408 C530.103135,371.500343 529.956572,372.036344 529.841137,372.579431 C529.505245,373.997152 529.33687,375.449389 529.339465,376.906355 L529.339465,458.515886 C529.343342,459.77989 529.473588,461.04034 529.728261,462.278428 C529.830968,462.816714 529.964974,463.348553 530.129599,463.871237 C530.839887,466.315126 532.024649,468.595153 533.616221,470.581104 C534.053321,471.135001 534.517953,471.666607 535.008361,472.173913 C537.160605,474.408236 539.752808,476.171958 542.621237,477.353679 L542.621237,477.353679 Z" id="Path" fill="url(#linearGradient-8)" fill-rule="nonzero"></path>
            <path d="M690.388796,484.251672 C689.380559,485.41879 688.286365,486.508793 687.115385,487.512542 C688.277297,486.499024 689.370826,485.409685 690.388796,484.251672 L690.388796,484.251672 Z" id="Path" fill="url(#linearGradient-9)" fill-rule="nonzero"></path>
            <path d="M693.674749,366.509197 C693.486622,366.220736 693.298495,365.932274 693.097826,365.656355 C692.721572,365.104515 692.320234,364.552676 691.918896,364.02592 C692.545987,364.828595 693.135452,365.656355 693.674749,366.509197 Z" id="Path" fill="url(#linearGradient-10)" fill-rule="nonzero"></path>
            <path d="M697.650502,374.774247 C697.750836,375.062709 697.838629,375.351171 697.926421,375.639632 C697.763378,375.050167 697.562709,374.473244 697.349498,373.896321 C697.462375,374.184783 697.562709,374.473244 697.650502,374.774247 Z" id="Path" fill="url(#linearGradient-11)" fill-rule="nonzero"></path>
            <path d="M699.506689,383.478261 L699.506689,452.320234 C699.502848,452.807711 699.460915,453.294142 699.381271,453.775084 C699.159362,455.840685 698.713601,457.876048 698.051839,459.845318 C697.901338,460.334448 697.738294,460.811037 697.550167,461.275084 C694.387684,469.144155 688.410445,475.555045 680.781773,479.260033 L530.581104,479.260033 C518.992475,479.260033 509.423077,471.433946 508.005853,461.300167 C507.917901,460.819873 507.867581,460.333445 507.855351,459.845318 C507.80944,459.428883 507.788499,459.010074 507.792642,458.591137 L507.792642,377.370401 C507.792642,365.944816 518.001672,356.701505 530.618729,356.701505 L684.318562,356.701505 C693.561873,362.671405 699.506689,372.491639 699.506689,383.478261 Z" id="Path" fill="#E6B000" fill-rule="nonzero"></path>
            <path d="M693.097826,364.23913 L534.042642,364.23913 C534.507218,363.67433 535.005625,363.138228 535.535117,362.633779 L691.780936,362.633779 C692.257225,363.137157 692.697288,363.673614 693.097826,364.23913 L693.097826,364.23913 Z" id="Path" fill="#FFFFFF" fill-rule="nonzero"></path>
            <path d="M697.650502,372.491639 L529.841137,372.491639 C529.956572,371.948552 530.103135,371.41255 530.2801,370.886288 L697.08612,370.886288 C697.249164,371.463211 697.462375,372.002508 697.650502,372.491639 Z" id="Path" fill="#FFFFFF" fill-rule="nonzero"></path>
            <path d="M699.44398,380.844482 L529.339465,380.844482 L529.339465,379.23913 L699.30602,379.23913 C699.30602,379.765886 699.406355,380.305184 699.44398,380.844482 Z" id="Path" fill="#FFFFFF" fill-rule="nonzero"></path>
            <rect id="Rectangle" fill="#FFFFFF" fill-rule="nonzero" x="529.339465" y="387.541806" width="170.179766" height="1.60535117"></rect>
            <rect id="Rectangle" fill="#FFFFFF" fill-rule="nonzero" x="529.339465" y="395.844482" width="170.179766" height="1.60535117"></rect>
            <rect id="Rectangle" fill="#FFFFFF" fill-rule="nonzero" x="529.339465" y="404.147157" width="170.179766" height="1.60535117"></rect>
            <rect id="Rectangle" fill="#FFFFFF" fill-rule="nonzero" x="529.339465" y="412.462375" width="170.179766" height="1.59280936"></rect>
            <rect id="Rectangle" fill="#FFFFFF" fill-rule="nonzero" x="529.339465" y="420.76505" width="170.179766" height="1.59280936"></rect>
            <rect id="Rectangle" fill="#FFFFFF" fill-rule="nonzero" x="529.339465" y="429.067726" width="170.179766" height="1.59280936"></rect>
            <rect id="Rectangle" fill="#FFFFFF" fill-rule="nonzero" x="529.339465" y="437.370401" width="170.179766" height="1.59280936"></rect>
            <rect id="Rectangle" fill="#FFFFFF" fill-rule="nonzero" x="529.339465" y="445.673077" width="170.179766" height="1.60535117"></rect>
            <polygon id="Path" fill="#FFFFFF" fill-rule="nonzero" points="699.531773 454.013378 699.531773 455.618729 529.339465 455.618729 529.339465 454.013378"></polygon>
            <path d="M697.035953,462.278428 C697.035953,462.817726 696.346154,463.344482 696.295987,463.883779 L530.129599,463.883779 C529.964939,463.356859 529.830936,462.820844 529.728261,462.278428 L697.035953,462.278428 Z" id="Path" fill="#FFFFFF" fill-rule="nonzero"></path>
            <path d="M540.150502,364.23913 L155.204849,364.23913 L156.45903,362.633779 L537.090301,362.633779 C538.143813,363.160535 539.159699,363.712375 540.150502,364.23913 Z" id="Path" fill="#FFFFFF" fill-rule="nonzero"></path>
            <path d="M536.688963,372.491639 L150.652174,372.491639 C150.852843,371.952341 151.066054,371.425585 151.291806,370.886288 L535.171405,370.886288 C535.709019,371.390462 536.215789,371.926549 536.688963,372.491639 L536.688963,372.491639 Z" id="Path" fill="#FFFFFF" fill-rule="nonzero"></path>
            <path d="M540.953177,380.844482 L148.883779,380.844482 C148.896209,380.310654 148.946502,379.778381 149.034281,379.251672 L540.551839,379.251672 C540.722333,379.772677 540.856434,380.304894 540.953177,380.844482 Z" id="Path" fill="#FFFFFF" fill-rule="nonzero"></path>
            <rect id="Rectangle" fill="#FFFFFF" fill-rule="nonzero" x="148.795987" y="387.541806" width="392.332776" height="1.59280936"></rect>
            <rect id="Rectangle" fill="#FFFFFF" fill-rule="nonzero" x="148.795987" y="395.844482" width="392.332776" height="1.59280936"></rect>
            <rect id="Rectangle" fill="#FFFFFF" fill-rule="nonzero" x="148.795987" y="404.147157" width="392.332776" height="1.60535117"></rect>
            <rect id="Rectangle" fill="#FFFFFF" fill-rule="nonzero" x="148.795987" y="412.462375" width="392.332776" height="1.59280936"></rect>
            <rect id="Rectangle" fill="#FFFFFF" fill-rule="nonzero" x="148.795987" y="420.777592" width="392.332776" height="1.58026756"></rect>
            <rect id="Rectangle" fill="#FFFFFF" fill-rule="nonzero" x="148.795987" y="429.067726" width="392.332776" height="1.58026756"></rect>
            <rect id="Rectangle" fill="#FFFFFF" fill-rule="nonzero" x="148.795987" y="437.370401" width="392.332776" height="1.59280936"></rect>
            <rect id="Rectangle" fill="#FFFFFF" fill-rule="nonzero" x="148.795987" y="445.673077" width="392.332776" height="1.60535117"></rect>
            <path d="M540.551839,454.013378 C540.387221,454.559664 540.190388,455.09572 539.962375,455.618729 L149.247492,455.618729 C149.159699,455.091973 149.071906,454.565217 149.009197,454.013378 L540.551839,454.013378 Z" id="Path" fill="#FFFFFF" fill-rule="nonzero"></path>
            <path d="M535.221572,462.29097 C534.65931,462.851352 534.069093,463.382966 533.453177,463.883779 L152.019231,463.883779 C151.755853,463.357023 151.505017,462.817726 151.279264,462.29097 L535.221572,462.29097 Z" id="Path" fill="#FFFFFF" fill-rule="nonzero"></path>
            <path d="M554.811873,334.866221 C549.155518,341.66388 541.843645,348.499164 538.946488,350.016722 C522.466555,358.695652 503.377926,365.342809 493.708194,381.270903 C481.467391,401.337793 489.381271,427.587793 483.762542,450.438963 C482.734114,454.602843 481.141304,458.854515 477.91806,461.726589 C474.694816,464.598662 469.51505,465.576923 466.091137,462.980769 C463.081104,460.710702 462.328595,456.59699 461.764214,452.872074 C456.821485,417.710078 456.635871,382.042637 461.212375,346.831104 C442.399666,355.234114 429.669732,372.968227 419.623746,390.90301 C409.577759,408.837793 401.149666,428.064381 387.15301,443.12709 C383.177258,447.391304 377.947324,451.567726 372.178094,450.739967 C365.242475,441.960702 368.879599,429.130435 372.817726,418.620401 C380.706522,397.449833 388.620401,376.254181 398.829431,356.187291 C402.115385,349.665552 405.76505,343.118729 411.283445,338.327759 C412.792648,337.019266 414.421941,335.856085 416.149666,334.853679 L554.811873,334.866221 Z" id="Path" fill="#3F3D56" fill-rule="nonzero" opacity="0.2"></path>
            <path d="M691.856187,470.593645 C691.429766,471.158027 690.953177,471.59699 690.476589,472.186455 L157.91388,472.186455 C157.412207,471.672241 156.923077,471.132943 156.45903,470.593645 L691.856187,470.593645 Z" id="Path" fill="#FFFFFF" fill-rule="nonzero"></path>
            <path d="M273.135452,673.570234 L208.783445,673.570234 C188.152174,668.377926 178.156355,646.066054 178.156355,646.066054 C178.156355,646.066054 176.287625,536.952341 178.156355,523.156355 C180.025084,509.360368 211.279264,499.452341 211.279264,499.452341 L273.135452,499.452341 C252.504181,502.412207 237.516722,522.529264 237.516722,522.529264 C237.516722,522.529264 236.262542,643.118729 237.516722,651.233278 C238.770903,659.347826 273.135452,673.570234 273.135452,673.570234 Z" id="Path" fill="url(#linearGradient-12)" fill-rule="nonzero"></path>
            <path d="M273.135452,673.570234 L252.504181,673.570234 C231.897993,668.377926 221.902174,646.066054 221.902174,646.066054 C221.902174,646.066054 220.020903,536.952341 221.902174,523.156355 C223.783445,509.360368 255.012542,499.452341 255.012542,499.452341 L273.135452,499.452341 C252.504181,502.412207 237.516722,522.529264 237.516722,522.529264 C237.516722,522.529264 236.262542,643.118729 237.516722,651.233278 C238.770903,659.347826 273.135452,673.570234 273.135452,673.570234 Z" id="Path" fill="#E6B000" fill-rule="nonzero"></path>
            <path d="M273.135452,673.570234 L252.504181,673.570234 C231.897993,668.377926 221.902174,646.066054 221.902174,646.066054 C221.902174,646.066054 220.020903,536.952341 221.902174,523.156355 C223.783445,509.360368 255.012542,499.452341 255.012542,499.452341 L273.135452,499.452341 C252.504181,502.412207 237.516722,522.529264 237.516722,522.529264 C237.516722,522.529264 236.262542,643.118729 237.516722,651.233278 C238.770903,659.347826 273.135452,673.570234 273.135452,673.570234 Z" id="Path" fill="url(#linearGradient-13)" fill-rule="nonzero"></path>
            <polygon id="Path" fill="#71BAE5" fill-rule="nonzero" points="356.764214 424.038462 370.685619 430.096154 376.442308 420.188127 362.759197 413.628763"></polygon>
            <polygon id="Path" fill="#71BAE5" fill-rule="nonzero" points="455.706522 453.185619 470.882107 452.307692 471.521739 441.584448 456.358696 441.584448"></polygon>
            <path d="M359.498328,421.730769 C359.195699,421.096669 358.769271,420.52952 358.244147,420.062709 C357.628392,419.651351 356.923131,419.393328 356.187291,419.310201 L332.094482,414.469064 C331.225038,414.254689 330.330808,414.157674 329.435619,414.180602 C327.127926,414.331104 325.234114,416.024247 323.716555,417.767559 C322.84766,418.591676 322.289533,419.690213 322.136288,420.877926 C322.313874,422.385491 323.114336,423.749915 324.343645,424.640468 C326.036548,426.210444 327.816093,427.684327 329.673913,429.055184 C333.244565,431.557847 336.959158,433.848582 340.798495,435.915552 C343.382107,437.370401 345.965719,438.825251 348.61204,440.154682 C352.964047,442.336957 357.479097,444.16806 362.019231,445.948997 C362.642629,446.336889 363.462442,446.145974 363.850334,445.522575 L363.850334,445.522575 C367.135104,442.097762 369.724694,438.068565 371.475753,433.658027 C371.914716,432.56689 372.729933,430.171405 371.475753,429.268395 C371.036789,428.954849 369.795151,429.005017 369.243311,428.879599 C365.167583,427.900909 361.653504,425.330844 359.485786,421.743311 L359.498328,421.730769 Z" id="Path" fill="#3F3D56" fill-rule="nonzero"></path>
            <path d="M457.249164,447.91806 C456.666849,447.527402 456.015703,447.250772 455.330268,447.102843 C454.591983,447.063186 453.854342,447.191844 453.173077,447.479097 L429.920569,455.41806 C429.039516,455.662497 428.195701,456.025338 427.412207,456.496656 C425.493311,457.750836 424.703177,460.259197 424.264214,462.479097 C423.925007,463.626218 424.00049,464.856144 424.477425,465.953177 C425.380604,467.154103 426.744835,467.92262 428.239967,468.072742 C430.489226,468.586974 432.76768,468.963925 435.062709,469.201505 C439.403901,469.577638 443.763876,469.690721 448.118729,469.540134 C451.091137,469.540134 454.051003,469.464883 457.01087,469.276756 C461.87709,468.975753 466.705686,468.285953 471.509197,467.545987 C472.234281,467.574501 472.848282,467.016319 472.888796,466.291806 C474.002899,461.677144 474.220045,456.89141 473.528428,452.194816 C473.352843,451.028428 472.813545,448.570234 471.295987,448.432274 C470.756689,448.369565 469.715719,449.046823 469.176421,449.209866 C468.357944,449.46092 467.518386,449.637227 466.66806,449.736622 C463.415326,450.135487 460.119614,449.499164 457.249164,447.91806 Z" id="Path" fill="#3F3D56" fill-rule="nonzero"></path>
            <g id="Group" opacity="0.18"></g>
            <path d="M551.38796,291.471572 C551.38796,291.471572 547.449833,328.33194 513.47408,334.866221 C490.472408,339.268395 462.341137,337.700669 446.588629,336.233278 C438.993293,335.53209 431.646875,339.151994 427.575251,345.602007 L378.662207,423.511706 L364.489967,416.66388 L364.37709,416.66388 L359.360368,414.255853 L400.083612,319.176421 C404.928103,307.221296 414.880307,298.070057 427.198997,294.243311 L473.992475,279.757525 L484.92893,276.371237 C484.92893,276.371237 528.737458,271.956522 551.38796,291.471572 Z" id="Path" fill="#3F3D56" fill-rule="nonzero"></path>
            <path d="M474.080268,279.682274 L477.15301,286.191472 C477.15301,286.191472 423.223244,301.994147 416.601171,309.682274 C407.759197,319.966555 364.540134,416.601171 364.540134,416.601171 L364.427258,416.601171 L359.410535,414.193144 L400.083612,319.176421 C404.928103,307.221296 414.880307,298.070057 427.198997,294.243311 L474.080268,279.682274 Z" id="Path" fill="#FFFFFF" fill-rule="nonzero" opacity="0.24"></path>
            <path d="M493.19398,285.075251 C493.19398,285.075251 449.874582,327.341137 448.4699,349.916388 C447.065217,372.491639 453.12291,443.277592 453.12291,443.277592 L474.142977,443.277592 C474.142977,443.277592 473.102007,357.341137 481.66806,356.73913 C490.234114,356.137124 529.063545,331.103679 535.296823,323.954849 C541.5301,316.80602 551.475753,291.446488 551.475753,291.446488 L493.19398,285.075251 Z" id="Path" fill="#3F3D56" fill-rule="nonzero"></path>
            <path d="M551.38796,291.471572 C551.38796,291.471572 516.722408,309.193144 480.602007,288.461538 C477.456063,286.655497 474.435043,284.640087 471.559365,282.42893 C471.559365,282.42893 486.760033,255.27592 474.657191,215.83194 C469.477425,198.963211 469.364548,166.755853 495.012542,162.165552 L495.13796,162.165552 C520.647993,157.63796 519.205686,163.933946 519.205686,163.933946 L530.744147,175.146321 C552.930602,193.143813 555.363712,220.735786 551.38796,291.471572 Z" id="Path" fill="#E6B000" fill-rule="nonzero"></path>
            <path d="M495.13796,162.140468 C494.072097,164.462815 492.415835,166.465033 490.334448,167.947324 C490.334448,167.947324 475.083612,174.707358 478.131271,197.069398 C481.17893,219.431438 486.760033,262.437291 486.760033,262.437291 L480.602007,288.461538 C477.456063,286.655497 474.435043,284.640087 471.559365,282.42893 C471.559365,282.42893 486.760033,255.27592 474.657191,215.83194 C469.477425,198.963211 469.364548,166.755853 495.012542,162.165552 L495.13796,162.140468 Z" id="Path" fill="#FFFFFF" fill-rule="nonzero" opacity="0.24"></path>
            <path d="M518.076923,160.710702 C515.361219,163.955833 511.467498,165.989085 507.252518,166.36307 C503.037539,166.737056 498.846653,165.421132 495.602007,162.704849 L495.602007,162.704849 L495.050167,162.228261 C495.050167,162.228261 476.237458,181.04097 495.250836,183.311037 C505.284281,184.565217 517.63796,172.424749 521.212375,165.564381 L518.076923,160.710702 Z" id="Path" fill="#3F3D56" fill-rule="nonzero"></path>
            <path d="M517.449833,161.902174 C515.476971,167.933977 511.291104,172.993767 505.735786,176.061873 C502.476351,178.030575 498.848335,179.311051 495.075251,179.824415 C493.776254,179.942874 492.483427,179.540265 491.481369,178.705217 C490.479311,177.870169 489.850169,176.671137 489.732441,175.372074 C489.634805,174.343933 489.867662,173.311451 490.397157,172.424749 C491.275084,170.882107 492.228261,169.101171 493.106187,167.207358 C494.937291,163.269231 496.467391,158.89214 496.216555,155.430602 L496.216555,155.054348 C495.990803,153.248328 497.169732,151.655518 499.151338,150.263378 C501.948161,148.319398 506.350334,146.789298 510.652174,145.635452 C514.957179,144.54243 519.320258,143.692425 523.720736,143.089465 C523.645485,143.340301 520.108696,154.16388 517.449833,161.902174 Z" id="Path" fill="#71BAE5" fill-rule="nonzero"></path>
            <path d="M495.840301,167.056856 C494.97829,167.232092 494.097264,167.295324 493.219064,167.244983 C495.050167,163.306856 496.580268,158.929766 496.329431,155.468227 L499.23913,150.301003 L501.408863,146.463211 L510.739967,145.673077 L520.171405,144.882943 C513.950669,159.594482 503.503344,165.689799 495.840301,167.056856 Z" id="Path" fill="#000000" fill-rule="nonzero"></path>
            <path d="M513.361204,93.5994983 C499.69236,90.7400842 486.292077,99.4977048 483.423913,113.164716 C483.298495,113.804348 483.185619,114.418896 483.097826,115.108696 C481.169145,125.244855 481.088416,135.646161 482.859532,145.811037 C487.161371,161.551003 510.27592,155.844482 514.966555,151.066054 C519.657191,146.287625 538.507525,124.264214 535.422241,115.698161 C533.453177,109.878763 526.555184,96.5719064 513.361204,93.5994983 Z" id="Path" fill="#71BAE5" fill-rule="nonzero"></path>
            <path d="M494.736622,78.2483278 L498.298495,81.5217391 C493.332933,80.0557307 487.965293,81.0685811 483.875418,84.243311 C479.098254,86.9848557 475.582796,91.4860824 474.080268,96.7851171 L481.994147,95.367893 C481.994147,95.367893 479.109532,103.883779 492.228261,108.135452 C505.34699,112.387124 519.230769,116.764214 519.230769,116.764214 L516.421405,109.23913 C516.421405,109.23913 523.783445,114.782609 524.397993,118.244147 C524.375571,123.494037 523.956317,128.734721 523.143813,133.921405 C523.143813,133.921405 528.762542,126.270903 529.615385,128.503344 C530.468227,130.735786 525.576923,137.721572 523.344482,138.963211 C521.11204,140.204849 520.058528,145.359532 519.782609,145.735786 C519.506689,146.11204 529.816054,141.421405 530.83194,139.113712 C531.847826,136.80602 546.822742,114.845318 542.70903,108.273411 L546.082776,108.913043 C544.477142,107.06719 542.480682,105.601976 540.238294,104.623746 C540.238294,104.623746 526.229097,70.2341137 494.736622,78.2483278 Z" id="Path" fill="#256A93" fill-rule="nonzero"></path>
            <path d="M489.770067,263.440635 C487.876254,261.546823 486.007525,259.289298 483.361204,258.837793 C482.43311,261.045151 484.326923,263.315217 485.129599,265.560201 C485.3805,266.065908 485.3805,266.659845 485.129599,267.165552 C484.753344,267.767559 483.875418,267.805184 483.185619,267.755017 C479.83952,267.516543 476.555574,266.728396 473.465719,265.422241 C470.606187,264.16806 467.859532,262.550167 464.761706,262.236622 C464.430648,262.171183 464.087288,262.215204 463.783445,262.36204 C463.030936,262.838629 463.4699,263.992475 464.009197,264.694816 C465.16029,266.211463 466.467643,267.602889 467.909699,268.846154 C465.724517,267.877741 463.393282,267.280097 461.011706,267.077759 C460.34699,267.077759 459.44398,267.215719 459.456522,267.880435 C459.499661,268.153705 459.631944,268.405044 459.832776,268.595318 C461.595546,270.61363 463.722995,272.281549 466.103679,273.511706 C464.372983,273.146421 462.603406,272.998957 460.83612,273.072742 C460.07107,273.072742 459.055184,273.47408 459.16806,274.226589 C459.216789,274.474377 459.339185,274.701684 459.519231,274.878763 C461.640835,277.440229 464.507808,279.277021 467.721572,280.133779 L462.704849,280.246656 C462.388907,280.233972 462.07464,280.298548 461.789298,280.434783 C460.886288,281.011706 461.676421,282.42893 462.554348,283.043478 C466.417224,285.739967 471.333612,286.216555 476.061873,286.555184 C485.104515,287.207358 494.623746,287.558528 502.77592,283.570234 C503.365385,283.269231 504.0301,282.867893 504.142977,282.215719 C504.168713,281.874215 504.117275,281.531298 503.992475,281.212375 C503.001672,277.91388 502.5,271.931438 499.502508,269.924749 C498.047659,268.95903 496.254181,268.407191 494.761706,267.416388 C493.269231,266.425585 491.475753,264.293478 489.770067,263.440635 Z" id="Path" fill="#71BAE5" fill-rule="nonzero"></path>
            <path d="M558.75,256.442308 C555.915552,284.297659 505.434783,287.70903 505.434783,287.70903 L500.229933,269.811873 L499.314381,266.66388 C499.314381,266.66388 526.354515,263.252508 531.521739,254.786789 C536.688963,246.32107 515.41806,217.938963 528.273411,202.111204 C541.128763,186.283445 544.051003,191.149666 544.051003,191.149666 C544.051003,191.149666 561.559365,228.586957 558.75,256.442308 Z" id="Path" fill="#E6B000" fill-rule="nonzero"></path>
            <path d="M423.147993,214.803512 C423.133556,215.67678 423.062336,216.548184 422.934783,217.412207 C422.508361,221.312709 421.291806,228.448997 418.05602,231.045151 C413.503344,234.694816 412.876254,229.37709 412.976589,227.282609 C413.075937,226.132566 413.264634,224.991999 413.54097,223.871237 C414.594482,219.331104 420.175585,216.220736 422.320234,215.192308 L423.147993,214.803512 Z" id="Path" fill="url(#linearGradient-14)" fill-rule="nonzero"></path>
            <path d="M422.934783,217.412207 C422.508361,221.312709 421.291806,228.448997 418.05602,231.045151 C416.651338,230.029264 414.845318,228.674749 412.976589,227.282609 C410.468227,225.401338 407.796823,223.419732 405.90301,222.040134 C404.217689,220.910471 402.683539,219.570197 401.337793,218.051839 C400.157854,216.510572 399.180012,214.824637 398.428094,213.035117 L394.540134,204.58194 C393.285953,201.810201 392.031773,198.147993 394.264214,196.003344 C394.828595,195.451505 399.970736,194.448161 400.309365,193.720736 C401.25,191.638796 395.292642,187.236622 395.668896,184.941472 C396.053828,183.651775 397.302764,182.81915 398.641304,182.959866 C399.895485,183.022575 403.457358,186.295987 404.573579,186.960702 C406.780936,188.214883 404.924749,189.995819 407.08194,191.300167 C409.880745,192.738361 412.423217,194.628266 414.607023,196.893813 C417.040134,199.740803 418.269231,203.390468 419.435619,206.927258 C420.288462,209.523411 421.429766,212.332776 422.307692,215.129599 C422.545987,215.932274 422.759197,216.672241 422.934783,217.412207 Z" id="Path" fill="#71BAE5" fill-rule="nonzero"></path>
            <polygon id="Path" fill="#E6B000" fill-rule="nonzero" points="404.485786 197.420569 396.120401 157.750836 393.022575 143.089465 441.634615 156.120401 455.744147 251.024247 410.568562 237.253344"></polygon>
            <polygon id="Path" fill="url(#linearGradient-15)" fill-rule="nonzero" points="414.607023 196.94398 395.367893 154.201505 410.568562 237.253344 455.744147 251.024247 450.90301 218.478261"></polygon>
            <path d="M407.257525,214.527592 C408.787625,213.762542 411.923077,212.370401 412.713211,210.852843 C412.901338,210.48913 413.177258,210.012542 412.938963,209.686455 C411.847826,208.181438 407.35786,210.100334 406.078595,209.686455 C406.956522,208.244147 414.782609,203.867057 411.095318,202.876254 C410.305184,202.663043 405.401338,205.146321 404.611204,204.920569 C405.225753,204.418896 410.267559,200.83194 411.132943,199.903846 C411.647563,199.334485 411.699451,198.4847 411.257928,197.856956 C410.816404,197.229212 409.99911,196.990766 409.289298,197.282609 C406.618984,198.509174 403.88035,199.581178 401.086957,200.493311 C401.626254,199.602843 408.913043,195.476589 409.201505,194.423077 C409.363792,194.024659 409.39024,193.58386 409.276756,193.168896 C409.072528,192.717138 408.684374,192.374649 408.210702,192.228261 C406.17893,191.438127 403.896321,192.228261 401.864548,193.043478 L397.048495,194.949833 C395.505853,195.551839 393.800167,196.329431 393.285953,197.884615 C393.060731,198.671736 393.022083,199.50052 393.173077,200.305184 C393.760241,205.383084 395.572234,210.242325 398.453177,214.464883 C399.882943,216.546823 404.397993,221.576087 406.994147,222.065217 C409.301839,222.504181 405.100334,215.719064 407.257525,214.527592 Z" id="Path" fill="#71BAE5" fill-rule="nonzero"></path>
            <path d="M457.550167,343.093645 C457.550167,343.093645 474.130435,305.104515 493.294314,294.293478 L486.760033,291.647157 C486.760033,291.647157 453.110368,327.42893 449.134615,345.840301 C445.158863,364.251672 453.135452,443.252508 453.135452,443.252508 L458.653846,443.252508 C458.653846,443.252508 449.535953,350.844482 457.550167,343.093645 Z" id="Path" fill="#FFFFFF" fill-rule="nonzero" opacity="0.24"></path>
            <path d="M532.926421,263.869565 C522.253344,268.259197 504.080268,272.084448 500.167224,272.887124 L499.414716,273.037625 L499.251672,269.73913 C499.251672,269.73913 526.291806,266.327759 531.45903,257.86204 C536.626254,249.396321 515.355351,221.014214 528.210702,205.186455 C528.210702,205.186455 526.580268,219.18311 530.806856,229.5301 C535.033445,239.87709 544.916388,258.852843 532.926421,263.869565 Z" id="Path" fill="#FFFFFF" fill-rule="nonzero" opacity="0.24"></path>
        </g>
    </g>
</svg>